# xmcd
#
# Track frame offsets:
# 150
# 17736
# 37843
# 55733
# 72161
# 90261
# 108787
# 123944
# 144193
# 160434
# 177609
# 194262
# 216649
# 232937
# 248990
#
# Disc length: 3549 seconds
#
# Revision: 1
# Processed by: cddbd v1.5.1PL0 Copyright (c) Steve Scherf et al.
# Submitted via: CedeCatalogueitor 2.6.0.6 http://personales.ya.com/cdcatalogueitor
#
DISCID=c60ddb0f
DTITLE=Olda Vave - 80´love 2
DYEAR=2000
DGENRE=
TTITLE0=Kool and The Gang - Cherish
TTITLE1=Jermain Jackson - Do What You Do
TTITLE2=Marvin Gaye - Sexual Healing
TTITLE3=Sade - Your Love Is King
TTITLE4=Air Supply - Two Less Lonely People In The World
TTITLE5=Will To Power - Baby Y Love You Way
TTITLE6=REO Speedwagon - One Loneny
TTITLE7=Benny Mardones - In To The Night
TTITLE8=Grace Jones - La Vie En Rose
TTITLE9=Stevie Perry - Oh Sherrie
TTITLE10=Chlliwack - I Believe
TTITLE11=The Church - Under The Milky Way
TTITLE12=Paul Davis - Cool Night
TTITLE13=Paul Young - Oh Girl
TTITLE14=Toto - I´ll Be Over You
EXTD=
EXTT0=
EXTT1=
EXTT2=
EXTT3=
EXTT4=
EXTT5=
EXTT6=
EXTT7=
EXTT8=
EXTT9=
EXTT10=
EXTT11=
EXTT12=
EXTT13=
EXTT14=
PLAYORDER=
